<svg width="1165" height="544" xmlns="http://www.w3.org/2000/svg" xmlns:xlink="http://www.w3.org/1999/xlink" xml:space="preserve" overflow="hidden"><defs><clipPath id="clip0"><rect x="6" y="0" width="1165" height="544"/></clipPath></defs><g clip-path="url(#clip0)" transform="translate(-6 0)"><path d="M288.045 265C293.587 265 298 269.634 298 275.447 298 281.266 293.587 286 288.045 286 282.414 286 278 281.266 278 275.447 278 269.634 282.414 265 288.045 265Z" fill="#0E6238" fill-rule="evenodd"/><path d="M263.634 265C268.767 265 273 269.634 273 275.447 273 281.266 268.767 286 263.634 286 258.233 286 254 281.266 254 275.447 254 269.634 258.233 265 263.634 265Z" fill="#0E6238" fill-rule="evenodd"/><path d="M354.05 368C359.587 368 364 372.414 364 377.955 364 383.402 359.587 388 354.05 388 348.414 388 344 383.402 344 377.955 344 372.414 348.414 368 354.05 368Z" fill="#0E6238" fill-rule="evenodd"/><path d="M329.141 368C334.544 368 339 372.414 339 377.955 339 383.402 334.544 388 329.141 388 323.456 388 319 383.402 319 377.955 319 372.414 323.456 368 329.141 368Z" fill="#0E6238" fill-rule="evenodd"/><path d="M272 296 272 313.187 263.21 316.186C260.595 318.603 259.068 322.21 259.068 326.974 259.068 331.499 260.572 334.987 263.266 337.344L272 340.105 272 359 262.727 357.535C249.629 352.961 242 342.035 242 327.821 242 313.182 249.073 302.307 261.286 297.785L272 296Z" fill="#0E6238" fill-rule="evenodd"/><path d="M275.244 295C286.098 295 296.67 298.33 302.977 301.948L302.977 340.872 320.039 340.872C326.622 340.872 333.486 339.728 337.381 338.114L337.381 295.283 355 295.283 355 349.055C348.417 355.051 335.621 359.717 321.617 359.904 321.153 360 320.596 360 320.132 360L277.75 360 272 359.112 272 340.042 274.687 340.872 285.353 340.872 285.353 314.796C282.015 313.086 278.213 312.225 273.948 312.225L272 312.875 272 295.529 275.244 295Z" fill="#0E6238" fill-rule="evenodd"/><path d="M380.859 294 391.475 294C419.238 294 428 301.541 428 324.053L428 360 370 360 370 340.811 410.481 340.811 410.481 324.949C410.481 315.234 405.913 312.164 395.546 312.164L380.859 312.164 380.859 294Z" fill="#0E6238" fill-rule="evenodd"/><path d="M448.064 372C453.551 373.624 460.984 375.339 468.052 375.339L474 374.658 474 392.15 467.587 393C459.872 393 452.339 391.853 445 389.371L448.064 372Z" fill="#0E6238" fill-rule="evenodd"/><path d="M474 297 474 314.176 465.035 317.021C462.294 319.326 460.674 322.726 460.674 327.097 460.674 331.421 462.247 334.819 465.011 337.135L474 339.916 474 359 463.768 357.478C450.235 352.959 443 342.211 443 328.523 443 314.194 450.287 303.339 462.871 298.808L474 297Z" fill="#0E6238" fill-rule="evenodd"/><path d="M562 290 562 307.765 547.803 311.135 561.361 337.771 562 337.314 562 359.575 504.395 359.575C503.03 376.989 494.959 386.996 482.102 390.911L474 392 474 374.628 476.598 374.326C483.658 372.367 486.765 367.463 487.106 359.575L479.277 359.575 474 358.779 474 339.748 476.455 340.518 487.106 340.518 487.106 315.968C483.554 314.265 479.915 313.408 476.093 313.408L474 314.081 474 296.952 477.094 296.443C486.283 296.443 495.385 298.716 504.487 303.267L504.487 340.518 545.8 340.518 527.964 311.896 530.877 297.678C536.2 295.07 541.545 293.126 546.88 291.833L562 290Z" fill="#0E6238" fill-rule="evenodd"/><path d="M752.538 267 770 267 770 345.054C763.29 353.334 750.881 359.524 736.908 359.904 736.449 360 735.897 360 735.438 360L735.257 360C734.612 360 734.152 360 733.786 359.904 725.79 359.711 718.342 357.712 711.544 353.906 705.2 357.904 698.124 360 689.943 360 682.959 360 676.429 357.808 670.457 353.526 664.392 357.808 657.862 360 650.605 360 642.61 360 635.347 357.332 630.289 353.334 624.224 357.236 615.769 359.807 605.75 360L562 360 562 337.646 572.155 330.421C574.799 327.232 576.339 323.496 576.339 319.449 576.339 312.217 571.1 307.93 562.181 307.93L562 307.973 562 290.133 562.826 290.033C581.666 290.033 594.167 298.506 594.167 314.783 594.167 325.062 588.929 334.775 581.026 340.863L604.739 340.863C610.99 340.863 617.147 339.532 621.927 337.437L621.927 310.694 639.389 310.694 639.389 337.725C642.883 339.912 646.558 340.863 650.326 340.863 654.188 340.863 657.862 339.912 661.357 337.821L661.357 310.694 678.819 310.694 678.819 337.821C682.313 339.912 685.901 340.863 689.757 340.863 693.617 340.863 697.385 339.912 700.694 337.725L700.694 304.979 718.161 304.979 718.161 337.437C722.662 339.724 728.454 340.863 735.344 340.863 741.6 340.863 748.125 339.628 752.538 337.437L752.538 267Z" fill="#0E6238" fill-rule="evenodd"/><path d="M792 267 809 267 809 360 792 360 792 267" fill="#0E6238" fill-rule="evenodd"/><path d="M969.186 259C974.697 259 979 263.612 979 269.497 979 275.289 974.697 280 969.186 280 963.576 280 959 275.289 959 269.497 959 263.612 963.576 259 969.186 259Z" fill="#0E6238" fill-rule="evenodd"/><path d="M1108.04 368C1113.59 368 1118 372.414 1118 377.955 1118 383.402 1113.59 388 1108.04 388 1102.41 388 1098 383.402 1098 377.955 1098 372.414 1102.41 368 1108.04 368Z" fill="#0E6238" fill-rule="evenodd"/><path d="M1083.63 368C1088.77 368 1093 372.414 1093 377.955 1093 383.402 1088.77 388 1083.63 388 1078.23 388 1074 383.402 1074 377.955 1074 372.414 1078.23 368 1083.63 368Z" fill="#0E6238" fill-rule="evenodd"/><path d="M967 289 967 307.015 958.63 309.894C956.201 312.152 954.836 315.425 954.836 319.487 954.836 324.647 957.194 328.802 961.415 331.872L967 334.625 967 360 896.003 360C872.226 360 859 351.017 859 328.18 859 321.204 860.2 313.563 862.886 305.252L879.073 308.208C877.406 313.66 876.574 318.532 876.574 322.642 876.574 335.059 883.515 340.795 897.017 340.795L950.581 340.795C941.605 335.445 936.981 327.515 936.981 316.906 936.981 303.577 944.839 294.332 956.611 290.543L967 289Z" fill="#0E6238" fill-rule="evenodd"/><path d="M969.518 289C978.677 289 987.652 291.471 996.442 296.414L996.442 340.897 1074.47 340.897C1080.97 340.897 1087.75 339.755 1091.6 338.137L1091.6 295.368 1109 295.368 1109 349.069C1102.41 355.057 1089.86 359.717 1076.03 359.904 1075.57 360 1075.02 360 1074.57 360L967 360 967 334.76 969.058 335.779C972.008 336.755 975.356 337.45 979.043 337.855L979.043 308.962C975.931 307.441 972.449 306.678 968.787 306.678L967 307.296 967 289.376 969.518 289Z" fill="#0E6238" fill-rule="evenodd"/><path d="M1149.35 297 1167 297 1167 354.802C1167 381.282 1153.7 393 1131.95 393 1129.46 393 1126.48 392.749 1123 392.359L1126.35 374.026C1127.48 374.155 1129.09 374.155 1131.33 374.155 1144.63 374.155 1149.35 368.17 1149.35 355.053L1149.35 297Z" fill="#0E6238" fill-rule="evenodd"/><path d="M297.928 434C312.718 434 327.951 438.123 339.193 445.305L332.535 457.832C321.885 451.565 308.13 447.751 296.893 447.751 283.73 447.751 274.558 453.098 274.558 463.636 274.558 470.509 278.256 473.722 297.042 478.914L309.165 482.276C331.206 488.537 342 494.346 342 511.917 342 522.306 338.153 530.249 330.464 535.749 322.776 541.25 312.718 544 300.142 544 283.581 544 266.421 538.957 254 530.249L260.952 518.487C272.787 525.823 288.313 530.249 301.332 530.249 316.117 530.249 326.175 524.748 326.175 512.678 325.588 503.666 321.442 501.225 305.174 496.793L292.753 493.58C268.054 487.016 258.439 480.595 258.439 464.402 258.439 454.316 262.131 446.677 269.383 441.634 276.772 436.591 286.238 434 297.928 434Z" fill="#0E6238" fill-rule="evenodd"/><path d="M399.617 495 405 495 405 505.445 401.68 505.445C390.335 505.445 383.705 510.36 383.705 518.965 383.705 527.41 389.894 532.02 401.09 532.02L405 531.428 405 542.951 398.735 544C380.904 544 370 534.17 370 519.425 370 504.215 381.345 495 399.617 495Z" fill="#0E6238" fill-rule="evenodd"/><path d="M405 465 405 476.507 393.252 478.491C389.031 479.938 384.885 482.107 380.846 485L376 474.345C380.772 471.076 386.021 468.604 391.545 466.95L405 465Z" fill="#0E6238" fill-rule="evenodd"/><path d="M408.74 465C428.698 465 440 475.336 440 493.421L440 542.52 426.204 542.52 426.204 534.311C422.168 537.579 417.839 540.011 413.253 541.626L405 543 405 531.598 413.876 530.263C418.059 528.989 422.168 527.09 426.204 524.584L426.204 505.885 405 505.885 405 495.548 426.204 495.548 426.204 494.792C426.204 483.09 419.45 476.85 406.099 476.85L405 477.035 405 465.542 408.74 465Z" fill="#0E6238" fill-rule="evenodd"/><path d="M474 466 487.969 466 487.969 511.888C487.969 524.579 494.954 532.071 507.283 532.071 516.347 532.071 526.157 528.099 533.886 520.91L533.886 466 548 466 548 542.472 533.886 542.472 533.886 532.226C524.371 539.719 512.632 544 501.788 544 484.399 544 474 533.451 474 515.861L474 466Z" fill="#0E6238" fill-rule="evenodd"/><path d="M617.187 465 618 465.162 618 477.446 608.838 479.396C599.86 483.448 593.778 492.991 593.778 504.5 593.778 516.121 599.611 525.608 608.651 529.625L618 531.559 618 543.838 617.187 544C596.295 544 580 526.226 580 504.5 580 482.774 596.295 465 617.187 465Z" fill="#0E6238" fill-rule="evenodd"/><path d="M642.127 436 656 436 656 542.64 642.127 542.64 642.127 533.501C639.396 536.774 635.78 539.439 631.537 541.286L618 544 618 531.687 618.66 531.825C628.844 531.825 637.404 527.252 642.127 520.393L642.127 488.71C637.404 481.856 628.844 477.284 618.66 477.284L618 477.426 618 465.108 631.537 467.821C635.78 469.667 639.396 472.333 642.127 475.608L642.127 436Z" fill="#0E6238" fill-rule="evenodd"/><path d="M694 466 708 466 708 543 694 543 694 466" fill="#0E6238" fill-rule="evenodd"/><path d="M701.073 438C705.412 438 709 441.811 709 446.42 709 451.028 705.412 455 701.073 455 696.734 455 693 451.028 693 446.42 693 441.811 696.734 438 701.073 438Z" fill="#0E6238" fill-rule="evenodd"/><path d="M797 436 841 436 841 449.758 812.039 449.758 812.039 492.103 841 492.103 841 505.856 812.039 505.856 812.039 543 797 543 797 436Z" fill="#0E6238" fill-rule="evenodd"/><path d="M841 436 841.974 436C873.039 436 885.945 446.703 885.945 470.089 885.945 487.823 878.442 498.825 863.283 503.258L890 543 871.837 543 846.928 505.701C846.03 505.856 844.676 505.856 842.727 505.856L841 505.856 841 492.103 842.727 492.103C862.385 492.103 870.191 486.136 870.191 471.005 870.191 455.719 862.385 449.758 842.727 449.758L841 449.758 841 436Z" fill="#0E6238" fill-rule="evenodd"/><path d="M950.785 465 951 465.043 951 476.889 950.785 476.852C937.56 476.852 928.406 485.36 926.661 499.19L951 499.19 951 509.825 926.808 509.825C928.223 520.198 933.891 527.494 942.092 530.493L951 532.003 951 544 935.989 540.897C922.235 534.872 913 520.771 913 504.355 913 482.476 929.13 465 950.785 465Z" fill="#0E6238" fill-rule="evenodd"/><path d="M976.028 523 984 530.917C975.431 539.284 963.706 544 951.076 544L951 543.985 951 531.969 951.076 531.982C961.597 531.982 969.867 528.935 976.028 523Z" fill="#0E6238" fill-rule="evenodd"/><path d="M951 465 966.262 467.94C980.412 473.739 990 487.483 990 504.657L990 510 951 510 951 499.314 976.269 499.314C976.269 489.692 970.076 481.876 960.87 478.57L951 476.904 951 465Z" fill="#0E6238" fill-rule="evenodd"/><path d="M1056.78 465 1057 465.043 1057 476.889 1056.78 476.852C1043.21 476.852 1033.81 485.36 1032.02 499.19L1057 499.19 1057 509.825 1032.17 509.825C1033.62 520.198 1039.44 527.494 1047.86 530.493L1057 532.003 1057 544 1041.59 540.897C1027.48 534.872 1018 520.771 1018 504.355 1018 482.476 1034.55 465 1056.78 465Z" fill="#0E6238" fill-rule="evenodd"/><path d="M1081.27 523 1089 530.917C1080.69 539.284 1069.32 544 1057.07 544L1057 543.985 1057 531.969 1057.07 531.982C1067.28 531.982 1075.3 528.935 1081.27 523Z" fill="#0E6238" fill-rule="evenodd"/><path d="M1057 465 1071.87 467.94C1085.66 473.739 1095 487.483 1095 504.657L1095 510 1057 510 1057 499.314 1081.62 499.314C1081.62 489.692 1075.59 481.876 1066.62 478.57L1057 476.904 1057 465Z" fill="#0E6238" fill-rule="evenodd"/><path d="M1156.41 434C1161.57 434 1166.43 434.77 1171 436.304L1168.64 447.049C1165.84 445.974 1162.31 445.514 1158.33 445.514 1150.67 445.514 1144.78 450.732 1144.78 460.712L1144.78 466.239 1167.9 466.239 1167.9 478.218 1144.78 478.218 1144.78 543 1130.79 543 1130.79 478.218 1119 478.218 1119 466.239 1130.79 466.239 1130.79 460.557C1130.79 443.365 1141.54 434 1156.41 434Z" fill="#0E6238" fill-rule="evenodd"/><path d="M333.964 0 333.964 33.9816 320.634 28.2588 307.859 33.7473 333.964 45.151 333.964 60.5791 289.702 41.5523 276.927 47.0357 333.964 71.738 333.964 87.177 258.732 54.8562 245.757 60.4462 333.964 98.346C333.954 99.9058 334 112.502 333.913 113.774L243.852 75.0757 243.852 86.2187 333.065 124.576C332.423 129.394 331.411 134.122 330.086 138.722L243.852 101.674 243.852 112.832 326.66 148.421C324.841 152.824 322.704 157.067 320.28 161.113L243.852 128.282 243.852 139.44 314.404 169.754C311.358 173.736 308.024 177.457 304.387 180.902L243.852 154.879 243.852 166.038 295.526 188.249C290.801 191.688 285.736 194.674 280.353 197.166L243.852 181.487 243.852 192.646 267.413 202.767 155.229 251C147 47.4562 167.254 73.8302 333.964 0Z" fill="#0E6238" fill-rule="evenodd"/><path d="M8.38317 215 115.484 260.809 86.1639 273.368 86.1639 284.511 128.539 266.388C134.212 268.731 139.926 271.467 145.021 274.795L86.1639 299.951 86.1639 311.111 154.617 281.839C158.53 285.14 162.149 288.771 165.447 292.647L86.1639 326.577 86.1639 337.737 171.822 301.091C174.476 305.036 176.824 309.183 178.869 313.507L86.1639 353.161 86.1639 364.336 182.73 323.026C184.294 327.536 185.522 332.157 186.4 336.912L86.1639 379.776 86.1639 390.935 187.747 347.49C187.912 349.796 188 352.117 188 354.46L188 362.84 89.7103 404.879 102.76 410.459 188 373.988 188 389.439 120.868 418.211 133.845 423.764 188 400.583 188 416.039 151.979 431.521 164.967 437.069 188 427.209 188 466C21.0041 392.336 0 418.855 8.38317 215Z" fill="#D9A630" fill-rule="evenodd"/></g></svg>